<?xml version="1.0" encoding="UTF-8"?>
<svg width="578px" height="209px" viewBox="0 0 578 209" version="1.1" xmlns="http://www.w3.org/2000/svg" xmlns:xlink="http://www.w3.org/1999/xlink">
    <!-- Generator: Sketch 57.1 (83088) - https://sketch.com -->
    <title>Logo</title>
    <desc>Created with Sketch.</desc>
    <g id="Logo" stroke="none" stroke-width="1" fill="none" fill-rule="evenodd">
        <g fill="#FFFFFF">
            <path d="M565.134032,185 C571.661991,185 576.972963,190.207132 577.134832,196.69496 L577.138634,197 C577.138634,203.627417 571.771111,209 565.134032,209 L12.0046016,209 C5.37464319,209 0,203.628874 0,197 C0,190.372583 5.36752291,185 12.0046016,185 L565.134032,185 Z M123.492815,194 L82.0634111,194 C80.4033444,194 79.0600868,195.343146 79.0600868,197 C79.0600868,198.59443 80.3103907,199.903429 81.886943,199.994895 L82.0634111,200 L123.492815,200 C125.093593,200 126.399788,198.75108 126.491046,197.176273 L126.496139,197 L126.491041,196.824063 C126.399693,195.252055 125.092266,194 123.492815,194 Z M186.740884,194 L145.311481,194 C143.651414,194 142.308156,195.343146 142.308156,197 C142.308156,198.653483 143.65279,200 145.311481,200 L145.311481,200 L186.740884,200 C188.400951,200 189.744208,198.656854 189.744208,197 L189.744208,197 L189.73911,196.824063 C189.647762,195.252055 188.340335,194 186.740884,194 L186.740884,194 Z" id="Phone"></path>
            <g transform="translate(10.000000, 0.000000)" id="Combined-Shape">
                <path d="M239.053749,125 L239.053749,39.4475 L254.893749,39.4475 C256.488757,39.4475 257.822494,39.8049964 258.894999,40.52 C259.967504,41.2350036 260.723747,42.3074928 261.163749,43.7375 L262.566249,48.3575 C263.996256,46.8724926 265.481241,45.5112562 267.021249,44.27375 C268.561257,43.0362438 270.22499,41.9637545 272.012499,41.05625 C273.800008,40.1487455 275.724989,39.4337526 277.787499,38.91125 C279.850009,38.3887474 282.118737,38.1275 284.593749,38.1275 C289.763775,38.1275 294.039982,39.4612367 297.422499,42.12875 C300.805016,44.7962633 303.37624,48.3574777 305.136249,52.8125 C306.566256,50.1724868 308.312489,47.9175093 310.374999,46.0475 C312.437509,44.1774906 314.664987,42.6650058 317.057499,41.51 C319.450011,40.3549942 321.979986,39.5025027 324.647499,38.9525 C327.315012,38.4024972 329.968736,38.1275 332.608749,38.1275 C337.503774,38.1275 341.84873,38.8562427 345.643749,40.31375 C349.438768,41.7712573 352.614986,43.8887361 355.172499,46.66625 C357.730012,49.4437639 359.668742,52.8537298 360.988749,56.89625 C362.308756,60.9387702 362.968749,65.5174744 362.968749,70.6325 L362.968749,125 L337.393749,125 L337.393749,70.6325 C337.393749,61.7774557 333.598787,57.35 326.008749,57.35 C322.543732,57.35 319.67001,58.4912386 317.387499,60.77375 C315.104988,63.0562614 313.963749,66.3424785 313.963749,70.6325 L313.963749,125 L288.388749,125 L288.388749,70.6325 C288.388749,65.7374755 287.426259,62.3000099 285.501249,60.32 C283.576239,58.3399901 280.743768,57.35 277.003749,57.35 C274.693737,57.35 272.507509,57.8724948 270.444999,58.9175 C268.382489,59.9625052 266.443758,61.3649912 264.628749,63.125 L264.628749,125 L239.053749,125 Z M481.892498,38.1275 C486.787523,38.1275 491.132479,38.8562427 494.927498,40.31375 C498.722517,41.7712573 501.898735,43.8887361 504.456248,46.66625 C507.013761,49.4437639 508.952491,52.8537298 510.272498,56.89625 C511.592505,60.9387702 512.252498,65.5174744 512.252498,70.6325 L512.252498,125 L486.677498,125 L486.677498,70.6325 C486.677498,61.7774557 482.882536,57.35 475.292498,57.35 C471.827481,57.35 468.95376,58.4912386 466.671248,60.77375 C464.388737,63.0562614 463.247498,66.3424785 463.247498,70.6325 L463.247498,125 L437.672498,125 L437.672498,70.6325 C437.672498,65.7374755 436.710008,62.3000099 434.784998,60.32 C432.859988,58.3399901 430.027517,57.35 426.287498,57.35 C423.977487,57.35 421.791258,57.8724948 419.728748,58.9175 C417.666238,59.9625052 415.727507,61.3649912 413.912498,63.125 L413.912498,125 L388.337498,125 L388.337498,39.4475 L404.177498,39.4475 C405.772506,39.4475 407.106243,39.8049964 408.178748,40.52 C409.251253,41.2350036 410.007496,42.3074928 410.447498,43.7375 L411.849998,48.3575 C413.280005,46.8724926 414.76499,45.5112562 416.304998,44.27375 C417.845006,43.0362438 419.508739,41.9637545 421.296248,41.05625 C423.083757,40.1487455 425.008738,39.4337526 427.071248,38.91125 C429.133758,38.3887474 431.402486,38.1275 433.877498,38.1275 C439.047524,38.1275 443.323731,39.4612367 446.706248,42.12875 C450.088765,44.7962633 452.659989,48.3574777 454.419998,52.8125 C455.850005,50.1724868 457.596238,47.9175093 459.658748,46.0475 C461.721258,44.1774906 463.948736,42.6650058 466.341248,41.51 C468.73376,40.3549942 471.263735,39.5025027 473.931248,38.9525 C476.598761,38.4024972 479.252485,38.1275 481.892498,38.1275 Z M98.185,4.7975 C99.395006,4.7975 100.453745,4.82499972 101.36125,4.88 C102.268755,4.93500027 103.079996,5.09999862 103.795,5.375 C104.510004,5.65000137 105.156247,6.07624711 105.73375,6.65375 C106.311253,7.23125289 106.874997,8.04249477 107.425,9.0875 L138.3625,70.055 C139.462505,72.1450105 140.521245,74.3174887 141.53875,76.5725 C142.556255,78.8275113 143.532495,81.1374882 144.4675,83.5025 C145.402505,81.0824879 146.392495,78.7312614 147.4375,76.44875 C148.482505,74.1662386 149.554994,71.9525107 150.655,69.8075 L181.51,9.0875 C182.060003,8.04249477 182.623747,7.23125289 183.20125,6.65375 C183.778753,6.07624711 184.424996,5.65000137 185.14,5.375 C185.855004,5.09999862 186.666245,4.93500027 187.57375,4.88 C188.481255,4.82499972 189.539994,4.7975 190.75,4.7975 L212.035,4.7975 L212.035,125 L187.45,125 L187.45,55.865 C187.45,52.5099832 187.614998,48.8800195 187.945,44.975 L156.1,106.7675 C155.109995,108.69251 153.776258,110.149995 152.09875,111.14 C150.421242,112.130005 148.510011,112.625 146.365,112.625 L142.57,112.625 C140.424989,112.625 138.513758,112.130005 136.83625,111.14 C135.158742,110.149995 133.825005,108.69251 132.835,106.7675 L100.825,44.8925 C101.045001,46.8175096 101.209999,48.7287405 101.32,50.62625 C101.430001,52.5237595 101.485,54.269992 101.485,55.865 L101.485,98.7565 L76.9,74.1715 L76.9,4.7975 L98.185,4.7975 Z"></path>
                <path d="M5.77076632,0.113912072 L178.656912,172.999912 L167.342912,172.999912 L0.113912072,5.77076632 L5.77076632,0.113912072 Z"></path>
            </g>
        </g>
    </g>
</svg>